<mxfile host="app.diagrams.net" agent="Mozilla/5.0 (X11; Linux x86_64; rv:131.0) Gecko/20100101 Firefox/131.0" version="24.9.1">
  <diagram id="R2lEEEUBdFMjLlhIrx00" name="Page-1">
    <mxGraphModel dx="989" dy="495" grid="1" gridSize="10" guides="1" tooltips="1" connect="1" arrows="1" fold="1" page="1" pageScale="1" pageWidth="850" pageHeight="1100" math="0" shadow="0" extFonts="Permanent Marker^https://fonts.googleapis.com/css?family=Permanent+Marker">
      <root>
        <mxCell id="0" />
        <mxCell id="1" parent="0" />
        <mxCell id="cVz3hMdZg883InBvt44--5" value="" style="group" vertex="1" connectable="0" parent="1">
          <mxGeometry x="350" y="290" width="290" height="280" as="geometry" />
        </mxCell>
        <mxCell id="cVz3hMdZg883InBvt44--2" value="&lt;div align=&quot;left&quot;&gt;DEVELOPER&lt;/div&gt;&lt;div align=&quot;left&quot;&gt;&lt;br&gt;&lt;/div&gt;&lt;div align=&quot;left&quot;&gt;&lt;u&gt;ID&lt;/u&gt; DeveloperName&lt;sub&gt; 1.1&lt;/sub&gt;&lt;/div&gt;&lt;div align=&quot;left&quot;&gt;&amp;nbsp;&amp;nbsp;&amp;nbsp;&amp;nbsp; Location&lt;sub&gt; 0.1&lt;/sub&gt;&lt;/div&gt;&lt;div align=&quot;left&quot;&gt;&amp;nbsp;&amp;nbsp;&amp;nbsp;&amp;nbsp; AvatarURL &lt;sub&gt;0.1&lt;/sub&gt;&lt;/div&gt;&lt;div align=&quot;left&quot;&gt;&amp;nbsp;&amp;nbsp;&amp;nbsp;&amp;nbsp; WebsiteURL &lt;sub&gt;0.1&lt;/sub&gt;&lt;/div&gt;&lt;div align=&quot;left&quot;&gt;&amp;nbsp;&amp;nbsp;&amp;nbsp;&amp;nbsp; AdditionalAgreement&lt;/div&gt;&lt;div align=&quot;left&quot;&gt;&amp;nbsp;&amp;nbsp;&amp;nbsp;&amp;nbsp;&amp;nbsp;&amp;nbsp;&amp;nbsp;&amp;nbsp; &lt;u&gt;ID&lt;/u&gt; AdditionalAgreementName &lt;sub&gt;1.1&lt;/sub&gt;&lt;/div&gt;&lt;div align=&quot;left&quot;&gt;&amp;nbsp;&amp;nbsp;&amp;nbsp;&amp;nbsp;&amp;nbsp;&amp;nbsp;&amp;nbsp;&amp;nbsp;&amp;nbsp;&amp;nbsp;&amp;nbsp;&amp;nbsp;&amp;nbsp; DocumentURL &lt;sub&gt;1.1&lt;/sub&gt;&lt;br&gt;&lt;/div&gt;" style="rounded=1;whiteSpace=wrap;html=1;imageVerticalAlign=top;verticalAlign=top;" vertex="1" parent="cVz3hMdZg883InBvt44--5">
          <mxGeometry width="280" height="210" as="geometry" />
        </mxCell>
        <mxCell id="cVz3hMdZg883InBvt44--3" value="" style="shape=partialRectangle;whiteSpace=wrap;html=1;bottom=1;right=1;left=1;top=0;fillColor=none;routingCenterX=-0.5;rotation=-90;movable=0;resizable=0;rotatable=0;deletable=0;editable=0;locked=1;connectable=0;" vertex="1" parent="cVz3hMdZg883InBvt44--5">
          <mxGeometry x="220" y="117.19999999999999" width="50" height="14" as="geometry" />
        </mxCell>
        <mxCell id="cVz3hMdZg883InBvt44--4" value="&lt;font style=&quot;font-size: 9px;&quot;&gt;0.N&lt;/font&gt;" style="text;html=1;align=center;verticalAlign=middle;whiteSpace=wrap;rounded=0;movable=0;resizable=0;rotatable=0;deletable=0;editable=0;locked=1;connectable=0;" vertex="1" parent="cVz3hMdZg883InBvt44--5">
          <mxGeometry x="230" y="136" width="60" height="42" as="geometry" />
        </mxCell>
        <mxCell id="cVz3hMdZg883InBvt44--9" value="GAME" style="rounded=1;whiteSpace=wrap;html=1;labelBackgroundColor=#a4ff9d;fillColor=#A4FF9D;strokeColor=#7fe764;movable=0;resizable=0;rotatable=0;deletable=0;editable=0;locked=1;connectable=0;" vertex="1" parent="cVz3hMdZg883InBvt44--5">
          <mxGeometry x="50" y="160" width="80" height="30" as="geometry" />
        </mxCell>
      </root>
    </mxGraphModel>
  </diagram>
</mxfile>
